<svg width="19" height="24" viewBox="0 0 19 24" fill="none" xmlns="http://www.w3.org/2000/svg">
<path d="M14.695 18.0037H3.48213C3.18484 18.0033 2.8998 17.8452 2.68959 17.5639C2.47937 17.2827 2.36114 16.9014 2.36084 16.5037V6.00372C2.36114 5.60602 2.47937 5.22472 2.68959 4.9435C2.8998 4.66228 3.18484 4.50412 3.48213 4.50372H14.695C14.9923 4.50412 15.2774 4.66228 15.4876 4.9435C15.6978 5.22472 15.816 5.60602 15.8163 6.00372V16.5037C15.8159 16.9014 15.6976 17.2826 15.4874 17.5637C15.2772 17.8449 14.9923 18.0031 14.695 18.0037V18.0037ZM3.48213 6.00372V16.5037H14.695V6.00372H3.48213Z" fill="#1B9145"/>
<path d="M1.23926 19.5037H16.9373V21.0037H1.23926V19.5037Z" fill="#1B9145"/>
</svg>
