<svg width="26" height="28" viewBox="0 0 26 28" fill="none" xmlns="http://www.w3.org/2000/svg">
<g clip-path="url(#clip0_10_350)">
<path d="M25.3417 25.7672L18.7676 18.8672C20.4753 16.6751 21.3149 13.878 21.1128 11.0543C20.9107 8.23072 19.6822 5.59666 17.6817 3.69699C15.6811 1.79733 13.0613 0.777402 10.3644 0.848178C7.6674 0.918955 5.09952 2.07502 3.19188 4.07725C1.28423 6.07947 0.182782 8.77467 0.115349 11.6054C0.0479165 14.4361 1.01966 17.1857 2.82959 19.2855C4.63951 21.3852 7.14914 22.6746 9.83937 22.8867C12.5296 23.0989 15.1946 22.2176 17.2832 20.4253L23.8572 27.3253L25.3417 25.7672ZM10.644 20.714C8.9829 20.714 7.3591 20.197 5.97795 19.2283C4.5968 18.2597 3.52032 16.883 2.88464 15.2723C2.24897 13.6615 2.08264 11.8891 2.40671 10.1791C2.73077 8.46916 3.53067 6.89846 4.70525 5.66565C5.87982 4.43284 7.37632 3.59328 9.0055 3.25315C10.6347 2.91302 12.3234 3.08758 13.858 3.75478C15.3927 4.42197 16.7044 5.55182 17.6272 7.00146C18.5501 8.45109 19.0427 10.1554 19.0427 11.8989C19.0402 14.236 18.1545 16.4766 16.58 18.1292C15.0055 19.7818 12.8707 20.7113 10.644 20.714Z" fill="white"/>
</g>
<defs>
<clipPath id="clip0_10_350">
<rect width="25.196" height="26.4453" fill="white" transform="translate(0.145996 0.879272)"/>
</clipPath>
</defs>
</svg>
