<svg width="10" height="11" viewBox="0 0 10 11" fill="none" xmlns="http://www.w3.org/2000/svg">
<g clip-path="url(#clip0_10_357)">
<path d="M6.99791 0.88855C6.56937 0.89612 6.15018 1.03198 5.78267 1.28241C5.41516 1.53284 5.11235 1.88898 4.9048 2.31485C4.69726 1.88898 4.39444 1.53284 4.02693 1.28241C3.65942 1.03198 3.24023 0.89612 2.8117 0.88855C2.12856 0.922258 1.48493 1.26166 1.02144 1.8326C0.557937 2.40354 0.312241 3.15962 0.338024 3.93564C0.338024 6.86387 4.50749 10.2459 4.68483 10.3894L4.9048 10.5662L5.12477 10.3894C5.30211 10.2468 9.47158 6.86387 9.47158 3.93564C9.49736 3.15962 9.25167 2.40354 8.78817 1.8326C8.32467 1.26166 7.68104 0.922258 6.99791 0.88855V0.88855Z" fill="white"/>
</g>
<defs>
<clipPath id="clip0_10_357">
<path d="M0.337891 1.49219C0.337891 0.939903 0.785606 0.492188 1.33789 0.492188H8.47144C9.02373 0.492188 9.47145 0.939903 9.47145 1.49219V9.86527C9.47145 10.4176 9.02373 10.8653 8.47145 10.8653H1.33789C0.785607 10.8653 0.337891 10.4176 0.337891 9.86527V1.49219Z" fill="white"/>
</clipPath>
</defs>
</svg>
