<svg width="26" height="30" viewBox="0 0 26 30" fill="none" xmlns="http://www.w3.org/2000/svg">
<g clip-path="url(#clip0_10_347)">
<path d="M12.744 17.3948C11.9087 17.3948 11.1076 17.7721 10.5169 18.4437C9.9263 19.1153 9.59448 20.0261 9.59448 20.9759V29.3629H15.8935V20.9759C15.8935 20.0261 15.5617 19.1153 14.971 18.4437C14.3804 17.7721 13.5793 17.3948 12.744 17.3948Z" fill="white"/>
<path d="M14.1487 1.67776C13.7631 1.28316 13.2627 1.06482 12.744 1.06482C12.2253 1.06482 11.7249 1.28316 11.3393 1.67776L0.145996 13.1326V25.5472C0.145996 26.5603 0.499939 27.5319 1.12996 28.2483C1.75998 28.9646 2.61448 29.3671 3.50546 29.3671H7.49483V20.9765C7.49483 19.3935 8.04787 17.8754 9.03228 16.7561C10.0167 15.6368 11.3518 15.0079 12.744 15.0079C14.1362 15.0079 15.4713 15.6368 16.4557 16.7561C17.4401 17.8754 17.9932 19.3935 17.9932 20.9765V29.3635H21.9825C22.8735 29.3635 23.728 28.961 24.358 28.2447C24.9881 27.5283 25.342 26.5567 25.342 25.5436V13.129L14.1487 1.67776Z" fill="white"/>
</g>
<defs>
<clipPath id="clip0_10_347">
<rect width="25.196" height="28.6491" fill="white" transform="translate(0.145996 0.683228)"/>
</clipPath>
</defs>
</svg>
