<svg width="27" height="22" viewBox="0 0 27 22" fill="none" xmlns="http://www.w3.org/2000/svg">
<g clip-path="url(#clip0_10_424)">
<path d="M19.6619 1.57178C18.408 1.58707 17.1815 1.86152 16.1062 2.36741C15.0309 2.87329 14.1448 3.59271 13.5376 4.453C12.9303 3.59271 12.0443 2.87329 10.9689 2.36741C9.89361 1.86152 8.66708 1.58707 7.4132 1.57178C5.41436 1.63987 3.53114 2.32548 2.17495 3.47882C0.818771 4.63217 0.0998709 6.15949 0.175313 7.72711C0.175313 13.6423 12.375 20.4743 12.8939 20.7642L13.5376 21.1213L14.1812 20.7642C14.7001 20.4761 26.8998 13.6423 26.8998 7.72711C26.9753 6.15949 26.2564 4.63217 24.9002 3.47882C23.544 2.32548 21.6608 1.63987 19.6619 1.57178V1.57178Z" fill="white"/>
</g>
<defs>
<clipPath id="clip0_10_424">
<rect width="26.7245" height="20.9543" fill="white" transform="translate(0.175293 0.770996)"/>
</clipPath>
</defs>
</svg>
