<svg width="14" height="25" viewBox="0 0 14 25" fill="none" xmlns="http://www.w3.org/2000/svg">
<path d="M8.61064 5.08076C8.61064 3.99518 7.89203 3.4207 7.43739 4.14107L4.90306 8.15841C4.82571 8.28133 4.72576 8.34935 4.62216 8.34957H2.54697C2.21038 8.34957 1.88756 8.58807 1.64955 9.0126C1.41154 9.43713 1.27783 10.0129 1.27783 10.6133V15.1377C1.27783 15.7381 1.41154 16.3139 1.64955 16.7384C1.88756 17.1629 2.21038 17.4014 2.54697 17.4014H4.62272C4.72632 17.4017 4.82627 17.4697 4.90363 17.5926L7.43683 21.6109C7.89146 22.3313 8.61064 21.7558 8.61064 20.6712V5.08076V5.08076ZM5.466 9.28625L7.76455 5.64116V20.1109L5.466 16.4648C5.23371 16.0961 4.93364 15.8924 4.62272 15.8923H2.54697C2.43477 15.8923 2.32717 15.8128 2.24783 15.6713C2.1685 15.5298 2.12393 15.3378 2.12393 15.1377V10.6143C2.12393 10.4142 2.1685 10.2222 2.24783 10.0807C2.32717 9.93922 2.43477 9.85972 2.54697 9.85972H4.62272C4.93364 9.85958 5.23371 9.65588 5.466 9.28725V9.28625Z" fill="black"/>
<path d="M10.8624 6.73782C10.9071 6.6789 10.9578 6.63624 11.0117 6.61228C11.0656 6.58833 11.1217 6.58355 11.1766 6.59822C11.2315 6.61288 11.2843 6.64671 11.3319 6.69777C11.3796 6.74882 11.4211 6.81611 11.4541 6.89578C12.1734 8.62616 12.5609 10.7239 12.5591 12.878C12.5607 15.0322 12.173 17.13 11.4535 18.8603C11.3854 19.014 11.2864 19.1143 11.1775 19.1401C11.0686 19.1659 10.9584 19.1152 10.8701 18.9986C10.7818 18.882 10.7224 18.7088 10.7044 18.5155C10.6864 18.3222 10.7114 18.124 10.7738 17.9629C11.3854 16.4922 11.7148 14.709 11.713 12.878C11.7148 11.047 11.3854 9.26383 10.7738 7.79322C10.7408 7.71355 10.7169 7.62306 10.7035 7.5269C10.69 7.43074 10.6874 7.33081 10.6956 7.23281C10.7038 7.1348 10.7228 7.04065 10.7514 6.95572C10.78 6.87079 10.8177 6.79675 10.8624 6.73782V6.73782Z" fill="black"/>
<path d="M9.81961 9.22586C9.86846 9.1786 9.92205 9.14898 9.97732 9.13867C10.0326 9.12837 10.0885 9.13759 10.1417 9.1658C10.195 9.19402 10.2446 9.24068 10.2878 9.30312C10.331 9.36556 10.3668 9.44255 10.3933 9.5297C10.6956 10.5257 10.8671 11.6677 10.8671 12.878C10.868 14.0471 10.7051 15.198 10.3933 16.2263C10.3399 16.4024 10.2494 16.5335 10.1418 16.5906C10.0343 16.6478 9.91835 16.6264 9.81961 16.5311C9.72088 16.4359 9.6474 16.2746 9.61535 16.0827C9.5833 15.8908 9.5953 15.684 9.6487 15.5079C9.88561 14.7262 10.021 13.8318 10.021 12.878C10.021 11.9242 9.88561 11.0298 9.6487 10.2481C9.62223 10.1609 9.60565 10.0652 9.59991 9.9666C9.59418 9.86797 9.5994 9.7683 9.61527 9.67327C9.63114 9.57825 9.65736 9.48973 9.69242 9.41279C9.72748 9.33585 9.7707 9.27198 9.81961 9.22485V9.22586Z" fill="black"/>
</svg>
