<svg width="19" height="24" viewBox="0 0 19 24" fill="none" xmlns="http://www.w3.org/2000/svg">
<path d="M11.4849 4.25001C11.4849 3.17101 10.5326 2.60001 9.93009 3.31601L6.57145 7.30901C6.46894 7.43118 6.33647 7.49879 6.19918 7.49901H3.44903C3.00295 7.49901 2.57514 7.73606 2.25972 8.15802C1.94429 8.57997 1.76709 9.15227 1.76709 9.74901V14.246C1.76709 14.8427 1.94429 15.415 2.25972 15.837C2.57514 16.259 3.00295 16.496 3.44903 16.496H6.19993C6.33722 16.4962 6.46968 16.5638 6.5722 16.686L9.92934 20.68C10.5318 21.396 11.4849 20.824 11.4849 19.746V4.25001V4.25001ZM7.31748 8.43001L10.3637 4.80701V19.189L7.31748 15.565C7.00964 15.1986 6.61197 14.9961 6.19993 14.996H3.44903C3.30033 14.996 3.15773 14.917 3.05259 14.7763C2.94745 14.6357 2.88838 14.4449 2.88838 14.246V9.75001C2.88838 9.55109 2.94745 9.36033 3.05259 9.21968C3.15773 9.07902 3.30033 9.00001 3.44903 9.00001H6.19993C6.61197 8.99987 7.00964 8.79739 7.31748 8.43101V8.43001Z" fill="#B3B3B3"/>
<path d="M14.469 5.89702C14.5282 5.83845 14.5954 5.79605 14.6668 5.77224C14.7383 5.74843 14.8125 5.74368 14.8854 5.75826C14.9582 5.77284 15.0281 5.80646 15.0912 5.85721C15.1543 5.90796 15.2093 5.97483 15.2531 6.05402C16.2064 7.77391 16.7199 9.85897 16.7175 12C16.7196 14.1412 16.2058 16.2262 15.2524 17.946C15.1621 18.0988 15.0309 18.1985 14.8865 18.2242C14.7422 18.2498 14.5961 18.1994 14.4791 18.0835C14.3621 17.9676 14.2834 17.7954 14.2596 17.6033C14.2358 17.4112 14.2688 17.2142 14.3516 17.054C15.1621 15.5923 15.5986 13.8199 15.5962 12C15.5986 10.1801 15.1621 8.40772 14.3516 6.94602C14.3078 6.86684 14.2761 6.77689 14.2583 6.68132C14.2405 6.58574 14.237 6.48642 14.2479 6.38901C14.2588 6.2916 14.2839 6.19801 14.3218 6.1136C14.3598 6.02918 14.4098 5.95559 14.469 5.89702V5.89702Z" fill="#B3B3B3"/>
<path d="M13.0871 8.37002C13.1519 8.32305 13.2229 8.2936 13.2961 8.28336C13.3694 8.27312 13.4434 8.28228 13.514 8.31033C13.5846 8.33837 13.6504 8.38475 13.7076 8.44681C13.7648 8.50887 13.8123 8.5854 13.8474 8.67202C14.248 9.66202 14.4753 10.797 14.4753 12C14.4765 13.162 14.2607 14.306 13.8474 15.328C13.7766 15.5031 13.6567 15.6333 13.5141 15.6901C13.3716 15.747 13.218 15.7257 13.0871 15.631C12.9563 15.5363 12.8589 15.376 12.8164 15.1853C12.7739 14.9945 12.7898 14.7891 12.8606 14.614C13.1746 13.837 13.354 12.948 13.354 12C13.354 11.052 13.1746 10.163 12.8606 9.38602C12.8255 9.29936 12.8036 9.2043 12.796 9.10627C12.7884 9.00824 12.7953 8.90917 12.8163 8.81472C12.8373 8.72027 12.8721 8.63229 12.9186 8.55582C12.965 8.47934 13.0223 8.41587 13.0871 8.36902V8.37002Z" fill="#B3B3B3"/>
</svg>
