<svg width="21" height="22" viewBox="0 0 21 22" fill="none" xmlns="http://www.w3.org/2000/svg">
<path d="M16.8421 7.33811C16.9544 7.33811 17.0581 7.38211 17.1404 7.45581L17.2053 7.52511L17.2218 7.54711C17.7846 8.33917 18.1429 9.29303 18.2567 10.3025C18.3704 11.312 18.2353 12.3376 17.8663 13.2651C17.4973 14.1925 16.9089 14.9856 16.1666 15.5559C15.4243 16.1263 14.5571 16.4516 13.6617 16.4956L13.4514 16.5H7.63894C7.54103 16.5 7.44314 16.4967 7.34541 16.4901L8.95062 18.3106C9.03072 18.4017 9.08011 18.5219 9.0902 18.6501C9.10029 18.7784 9.07044 18.9066 9.00584 19.0124L8.95062 19.0894C8.87036 19.1804 8.76454 19.2364 8.6516 19.2479C8.53866 19.2594 8.42575 19.2255 8.33256 19.1521L8.26475 19.0894L5.84287 16.3394C5.76278 16.2483 5.71339 16.1281 5.7033 15.9999C5.69321 15.8716 5.72306 15.7434 5.78766 15.6376L5.84287 15.5606L8.26475 12.8106C8.35018 12.7132 8.46466 12.6556 8.58562 12.6492C8.70658 12.6429 8.82526 12.6882 8.91825 12.7763C9.01125 12.8643 9.07182 12.9887 9.08803 13.125C9.10425 13.2613 9.07492 13.3995 9.00584 13.5124L8.95062 13.5894L7.36478 15.389L7.50041 15.3978L7.63894 15.4H13.4514C14.1832 15.4001 14.9 15.1649 15.519 14.7216C16.1379 14.2784 16.6337 13.6451 16.9489 12.8953C17.2641 12.1454 17.3859 11.3095 17.3001 10.4843C17.2143 9.65911 16.9245 8.87836 16.4642 8.23241C16.4074 8.15154 16.3717 8.05408 16.3615 7.95125C16.3512 7.84842 16.3667 7.74438 16.4061 7.65109C16.4456 7.55779 16.5074 7.47904 16.5845 7.42387C16.6617 7.3687 16.7509 7.33935 16.8421 7.33921V7.33811ZM12.1397 2.91061C12.22 2.81966 12.3258 2.76358 12.4388 2.75212C12.5517 2.74066 12.6646 2.77456 12.7578 2.84791L12.8256 2.91061L15.2475 5.66061L15.3027 5.73761C15.3585 5.82945 15.3884 5.93841 15.3884 6.05001C15.3884 6.1616 15.3585 6.27056 15.3027 6.36241L15.2475 6.43941L12.8256 9.18941L12.7578 9.25211C12.6769 9.31549 12.581 9.34944 12.4827 9.34944C12.3844 9.34944 12.2884 9.31549 12.2076 9.25211L12.1397 9.18941L12.0845 9.11241C12.0287 9.02056 11.9988 8.9116 11.9988 8.80001C11.9988 8.68841 12.0287 8.57945 12.0845 8.48761L12.1397 8.41061L13.7256 6.61101L13.59 6.60221L13.4514 6.60001H7.63894C6.90654 6.59996 6.18913 6.83559 5.56985 7.27959C4.95057 7.72359 4.45479 8.35778 4.13997 9.10865C3.82515 9.85953 3.70417 10.6963 3.79108 11.5221C3.87798 12.3478 4.16919 13.1287 4.63097 13.7742C4.70817 13.891 4.74134 14.0379 4.72318 14.1825C4.70501 14.3271 4.63699 14.4576 4.53409 14.5453C4.48314 14.5887 4.42516 14.6203 4.36346 14.6383C4.30176 14.6562 4.23754 14.6602 4.17448 14.65C4.04713 14.6294 3.93221 14.5521 3.855 14.4353C3.29606 13.642 2.94153 12.6885 2.83074 11.6804C2.71995 10.6723 2.85722 9.64905 3.22732 8.72414C3.59743 7.79922 4.18591 7.00877 4.92751 6.44045C5.66911 5.87213 6.53485 5.54814 7.42872 5.50441L7.63894 5.50001H13.4514C13.5502 5.50001 13.6481 5.50331 13.745 5.50991L12.1397 3.68941L12.0845 3.61241C12.0199 3.50659 11.9901 3.37839 12.0002 3.25015C12.0103 3.12191 12.0597 3.00175 12.1397 2.91061V2.91061Z" fill="#C4C4C4"/>
</svg>
