<svg width="25" height="25" viewBox="0 0 25 25" fill="none" xmlns="http://www.w3.org/2000/svg">
<path fill-rule="evenodd" clip-rule="evenodd" d="M16.7059 16.3354L21.0988 21.4902L20.3368 22.145L15.9321 16.9902C14.4162 18.141 12.7098 18.7164 10.813 18.7164C9.66216 18.7164 8.56097 18.4922 7.50941 18.0438C6.45785 17.5954 5.55308 16.9922 4.79511 16.2343C4.03714 15.4763 3.43397 14.5716 2.9856 13.52C2.53722 12.4684 2.31302 11.3672 2.31299 10.2164C2.31296 9.06563 2.53716 7.96445 2.9856 6.91285C3.43404 5.86126 4.03721 4.95649 4.79511 4.19856C5.55302 3.44062 6.45779 2.83745 7.50941 2.38904C8.56104 1.94063 9.66222 1.71643 10.813 1.71643C11.9637 1.71643 13.0649 1.94063 14.1165 2.38904C15.1682 2.83745 16.0729 3.44062 16.8308 4.19856C17.5887 4.95649 18.1919 5.86126 18.6403 6.91285C19.0888 7.96445 19.313 9.06563 19.313 10.2164C19.313 11.3989 19.0828 12.518 18.6225 13.5736C18.1622 14.6291 17.5233 15.5498 16.7058 16.3355L16.7059 16.3354ZM10.8131 17.7164C12.1702 17.7164 13.4242 17.381 14.575 16.7104C15.7258 16.0397 16.6365 15.129 17.3071 13.9782C17.9778 12.8274 18.3131 11.5735 18.3131 10.2163C18.3131 8.85916 17.9778 7.6052 17.3071 6.45441C16.6364 5.30363 15.7257 4.39293 14.575 3.72231C13.4242 3.05168 12.1703 2.71637 10.8131 2.71637C9.45588 2.71637 8.20191 3.05168 7.05116 3.72231C5.90041 4.39293 4.98971 5.30363 4.31905 6.45441C3.64839 7.6052 3.31308 8.85916 3.31311 10.2163C3.31314 11.5735 3.64846 12.8274 4.31905 13.9782C4.98964 15.129 5.90035 16.0397 7.05116 16.7104C8.20197 17.381 9.45594 17.7164 10.8131 17.7164Z" fill="#B3B3B3"/>
</svg>
