<svg width="19" height="21" viewBox="0 0 19 21" fill="none" xmlns="http://www.w3.org/2000/svg">
<path d="M4.54001 17.7754C3.60403 16.7124 2.96662 15.358 2.70839 13.8836C2.45015 12.4091 2.5827 10.8808 3.08925 9.49194C3.59581 8.10305 4.45363 6.91595 5.55423 6.08075C6.65484 5.24555 7.9488 4.79976 9.27248 4.79976C10.5962 4.79976 11.8901 5.24555 12.9907 6.08075C14.0913 6.91595 14.9492 8.10305 15.4557 9.49194C15.9623 10.8808 16.0948 12.4091 15.8366 13.8836C15.5784 15.358 14.9409 16.7124 14.005 17.7754L15.0565 18.9696C15.8172 18.1079 16.4204 17.084 16.8316 15.9567C17.2428 14.8293 17.4538 13.6209 17.4524 12.4007C17.4524 7.27001 13.7901 3.1106 9.27248 3.1106C4.75492 3.1106 1.09253 7.27001 1.09253 12.4007C1.09253 14.9664 2.00794 17.2889 3.48851 18.9696L4.54001 17.7754V17.7754Z" fill="#159643"/>
<path d="M12.9535 16.5812C13.6815 15.7544 14.1772 14.701 14.378 13.5542C14.5788 12.4075 14.4757 11.2188 14.0817 10.1386C13.6877 9.05839 13.0205 8.13512 12.1645 7.48554C11.3085 6.83597 10.3021 6.48926 9.27257 6.48926C8.24305 6.48926 7.23666 6.83597 6.38064 7.48554C5.52463 8.13512 4.85743 9.05839 4.46343 10.1386C4.06943 11.2188 3.96631 12.4075 4.16712 13.5542C4.36793 14.701 4.86365 15.7544 5.59159 16.5812L6.64383 15.387C6.12383 14.7965 5.7697 14.044 5.62623 13.2249C5.48275 12.4058 5.55638 11.5567 5.8378 10.7851C6.11922 10.0135 6.59578 9.35397 7.20723 8.88997C7.81868 8.42596 8.53755 8.1783 9.27294 8.1783C10.0083 8.1783 10.7272 8.42596 11.3386 8.88997C11.9501 9.35397 12.4267 10.0135 12.7081 10.7851C12.9895 11.5567 13.0631 12.4058 12.9197 13.2249C12.7762 14.044 12.4221 14.7965 11.902 15.387L12.9535 16.5812Z" fill="#159643"/>
<path d="M10.8498 14.192C11.1617 13.8377 11.3742 13.3862 11.4602 12.8947C11.5463 12.4033 11.5021 11.8939 11.3332 11.4309C11.1643 10.968 10.8784 10.5723 10.5115 10.2939C10.1447 10.0155 9.71337 9.86694 9.27216 9.86694C8.83094 9.86694 8.39964 10.0155 8.03278 10.2939C7.66592 10.5723 7.37998 10.968 7.21111 11.4309C7.04225 11.8939 6.99805 12.4033 7.0841 12.8947C7.17015 13.3862 7.38258 13.8377 7.69454 14.192L8.74678 12.9978C8.64276 12.8797 8.57191 12.7292 8.5432 12.5654C8.51449 12.4016 8.5292 12.2317 8.58548 12.0774C8.64176 11.9231 8.73707 11.7911 8.85937 11.6983C8.98166 11.6055 9.12544 11.556 9.27253 11.556C9.41962 11.556 9.5634 11.6055 9.68569 11.6983C9.80799 11.7911 9.9033 11.9231 9.95958 12.0774C10.0159 12.2317 10.0306 12.4016 10.0019 12.5654C9.97315 12.7292 9.9023 12.8797 9.79828 12.9978L10.8498 14.192V14.192Z" fill="#159643"/>
</svg>
