<svg width="46" height="51" viewBox="0 0 46 51" fill="none" xmlns="http://www.w3.org/2000/svg">
<path d="M23.0368 4.25C19.3354 4.25 15.7171 5.49629 12.6395 7.83127C9.56197 10.1663 7.16328 13.485 5.74683 17.368C4.33037 21.2509 3.95977 25.5236 4.68187 29.6457C5.40397 33.7678 7.18635 37.5542 9.80362 40.526C12.4209 43.4979 15.7555 45.5218 19.3857 46.3417C23.016 47.1616 26.7789 46.7408 30.1985 45.1324C33.6181 43.5241 36.5409 40.8004 38.5973 37.3059C40.6537 33.8113 41.7512 29.7029 41.7512 25.5C41.7512 22.7094 41.2672 19.9461 40.3267 17.368C39.3862 14.7898 38.0077 12.4472 36.2699 10.474C34.5321 8.50074 32.469 6.93547 30.1985 5.86756C27.9279 4.79965 25.4944 4.25 23.0368 4.25ZM19.3857 32.5V17.381L29.6419 25.5L19.3857 32.5Z" fill="white"/>
</svg>
