<svg width="138" height="36" viewBox="0 0 138 36" fill="none" xmlns="http://www.w3.org/2000/svg">
<g clip-path="url(#clip0_10_269)">
<path d="M1.89941 18.0249C1.89941 27.7159 11.0225 35.7216 22.0662 35.7216C33.11 35.7216 42.2331 27.7159 42.2331 18.0249C42.2331 8.3338 33.11 0.433472 22.0662 0.433472C11.0225 0.433472 1.89941 8.3338 1.89941 18.0249ZM29.5088 26.2412C24.8272 23.7131 18.8251 23.0811 11.8628 24.4505C10.1822 24.6611 9.94214 22.5544 11.3826 22.3437C19.0652 20.7636 25.5474 21.501 30.8292 24.3451C32.1497 25.0825 30.8292 26.8732 29.5088 26.2412ZM31.5495 21.501C26.1476 18.5516 17.8648 17.7088 11.5027 19.3943C9.46197 19.9209 8.74173 17.1822 10.6624 16.7608C17.9849 14.8647 26.9879 15.8128 33.23 19.1836C34.9106 20.1316 33.23 22.449 31.5495 21.501ZM10.5423 14.022C8.50165 14.6541 7.1812 11.5993 9.46197 10.8619C16.5444 8.96582 28.5484 9.28184 35.991 13.1793C38.0316 14.1274 36.111 17.0768 33.9503 16.0234C27.4681 12.6526 16.6644 12.3366 10.5423 14.022ZM56.0377 23.6078C53.997 23.6078 52.0764 22.9757 50.3958 21.501C50.2758 21.501 50.2758 21.6063 50.2758 21.6063L48.3551 23.6078C48.2351 23.7131 48.2351 23.8184 48.3551 23.9238C50.5159 25.6092 53.1568 26.4519 56.0377 26.4519C60.1191 26.4519 62.64 24.4505 62.64 21.501C62.64 18.9729 60.8394 17.6035 56.6379 16.6555C53.1568 15.9181 52.5566 15.3914 52.5566 14.338C52.5566 13.2847 53.757 12.6526 55.3175 12.6526C56.878 12.6526 58.3185 13.1793 59.9991 14.2327C59.9991 14.2327 60.1191 14.338 60.2392 14.338C60.3592 14.338 60.3592 14.2327 60.3592 14.2327L62.0398 12.126C62.1598 12.0206 62.1598 12.0206 62.0398 11.9153C60.1191 10.5459 57.8383 9.80852 55.3175 9.80852C51.5962 9.80852 48.9553 11.8099 48.9553 14.6541C48.9553 17.7088 51.3562 18.6569 55.1975 19.4996C58.5586 20.1316 59.0388 20.7636 59.0388 21.817C59.0388 22.9757 57.8383 23.6078 56.0377 23.6078ZM67.4416 15.4968V14.1274C67.4416 14.022 67.3216 13.9167 67.2015 13.9167H64.0805C63.9604 13.9167 63.8404 14.022 63.8404 14.1274V29.612C63.8404 29.7173 63.9604 29.8227 64.0805 29.8227H67.2015C67.3216 29.8227 67.4416 29.7173 67.4416 29.612V24.7665C68.642 25.9252 69.9625 26.4519 71.7631 26.4519C75.0042 26.4519 78.2453 24.2398 78.2453 20.0263C78.2453 15.8128 75.0042 13.706 71.7631 13.706C69.9625 13.706 68.642 14.2327 67.4416 15.4968ZM71.0428 23.7131C68.8821 23.7131 67.3216 22.133 67.3216 20.0263C67.3216 17.9195 68.8821 16.4448 71.0428 16.4448C73.2035 16.4448 74.644 17.9195 74.644 20.0263C74.644 22.133 73.2035 23.7131 71.0428 23.7131ZM79.2056 20.1316C79.2056 23.7131 82.4467 26.4519 86.6481 26.4519C90.8495 26.4519 94.0906 23.6078 94.0906 20.0263C94.0906 16.4448 90.9696 13.706 86.7681 13.706C82.5667 13.706 79.2056 16.5501 79.2056 20.1316ZM82.8068 20.0263C82.8068 17.9195 84.3673 16.4448 86.6481 16.4448C88.9289 16.4448 90.6094 18.0249 90.6094 20.1316C90.6094 22.2384 89.0489 23.7131 86.7681 23.7131C84.4874 23.7131 82.8068 22.133 82.8068 20.0263ZM99.6125 13.9167V10.8619C99.6125 10.7566 99.6125 10.6512 99.4924 10.6512H96.3714C96.2514 10.6512 96.1313 10.7566 96.1313 10.8619V13.9167H94.5708C94.4507 13.9167 94.3307 14.022 94.3307 14.1274V16.4448C94.3307 16.5501 94.4507 16.6555 94.5708 16.6555H96.1313V22.7651C96.1313 25.1878 97.4518 26.4519 100.213 26.4519C101.293 26.4519 102.373 26.2412 103.214 25.8199C103.334 25.8199 103.334 25.7145 103.334 25.6092V23.3971C103.334 23.2917 103.334 23.1864 103.214 23.1864H102.974C102.373 23.5024 101.653 23.6078 101.053 23.6078C100.093 23.6078 99.6125 23.1864 99.6125 22.3437V16.6555H103.214C103.334 16.6555 103.454 16.5501 103.454 16.4448V14.1274C103.454 14.022 103.334 13.9167 103.214 13.9167H99.6125ZM115.098 13.6007C115.098 12.442 115.578 12.0206 116.658 12.0206C117.258 12.0206 117.859 12.0206 118.459 12.2313H118.579C118.579 12.2313 118.699 12.126 118.699 12.0206V9.80852C118.699 9.70319 118.699 9.59785 118.579 9.59785C117.979 9.38717 117.138 9.28184 115.938 9.28184C113.057 9.28184 111.617 10.7566 111.617 13.39V13.9167H110.056C109.936 13.9167 109.816 14.022 109.816 14.1274V16.4448C109.816 16.5501 109.936 16.6555 110.056 16.6555H111.617V26.0305C111.617 26.1359 111.737 26.2412 111.857 26.2412H114.978C115.098 26.2412 115.098 26.1359 115.098 26.0305V16.6555H118.099L122.54 26.0305C122.06 26.9786 121.58 27.1892 120.86 27.1892C120.259 27.1892 119.659 27.0839 119.059 26.7679H118.939L118.819 26.8732L117.739 28.8746C117.739 28.98 117.739 29.1907 117.859 29.1907C118.939 29.7173 119.899 29.928 121.1 29.928C123.381 29.928 124.701 28.98 125.781 26.4519L131.183 14.2327V14.022C131.183 13.9167 131.063 13.9167 130.943 13.9167H127.702C127.582 13.9167 127.582 14.022 127.582 14.1274L124.221 22.3437L120.62 14.1274C120.62 14.022 120.5 13.9167 120.38 13.9167H115.098V13.6007ZM105.134 13.9167C105.014 13.9167 104.894 14.022 104.894 14.1274V26.0305C104.894 26.1359 105.014 26.2412 105.134 26.2412H108.255C108.375 26.2412 108.375 26.1359 108.375 26.0305V14.1274C108.375 14.022 108.375 13.9167 108.255 13.9167H105.134ZM104.414 10.4406C104.414 11.4939 105.494 12.442 106.695 12.442C107.895 12.442 108.856 11.4939 108.856 10.4406C108.856 9.38717 107.895 8.54447 106.695 8.54447C105.494 8.54447 104.414 9.38717 104.414 10.4406ZM133.824 17.7088C135.024 17.7088 136.105 16.8661 136.105 15.8128C136.105 14.7594 135.024 13.9167 133.824 13.9167C132.624 13.9167 131.663 14.7594 131.663 15.8128C131.663 16.8661 132.624 17.7088 133.824 17.7088ZM133.824 14.1274C134.904 14.1274 135.865 14.8647 135.865 15.8128C135.865 16.7608 134.904 17.4982 133.824 17.4982C132.744 17.4982 131.903 16.7608 131.903 15.8128C131.903 14.8647 132.744 14.1274 133.824 14.1274ZM134.304 16.0234C134.664 15.9181 134.904 15.7074 134.904 15.3914C134.904 14.9701 134.424 14.7594 133.944 14.7594H132.984V16.7608H133.464V16.1288H133.944L134.424 16.7608H135.024L134.304 16.0234ZM133.944 15.0754C134.184 15.0754 134.424 15.1807 134.424 15.3914C134.424 15.6021 134.184 15.7074 133.944 15.7074H133.464V15.0754H133.944Z" fill="white"/>
</g>
<defs>
<clipPath id="clip0_10_269">
<rect width="136.126" height="35.8148" fill="white" transform="translate(0.938965 0.012085)"/>
</clipPath>
</defs>
</svg>
