<svg width="18" height="23" viewBox="0 0 18 23" fill="none" xmlns="http://www.w3.org/2000/svg">
<path d="M13.8671 10.6022C14.4354 9.40831 14.6258 7.96126 14.3964 6.57938C14.167 5.1975 13.5367 3.99399 12.644 3.23359C11.7513 2.4732 10.6694 2.21822 9.63639 2.52474C8.60334 2.83127 7.70373 3.67418 7.13545 4.86806L7.10475 4.92279L7.08067 4.98315C6.52953 6.16528 6.3476 7.58977 6.57406 8.94982C6.60397 9.13649 6.64213 9.32064 6.68833 9.50128L3.86359 18.0938C3.778 18.3537 3.76492 18.6461 3.82672 18.9179C3.88852 19.1897 4.0211 19.4229 4.20042 19.5751L5.14696 20.3814C5.32594 20.5343 5.53997 20.5964 5.75021 20.5563C5.96044 20.5163 6.15296 20.3767 6.29283 20.163L10.918 13.1041C11.0599 13.0837 11.2008 13.0521 11.3399 13.0094C12.3569 12.7085 13.2448 11.8854 13.8124 10.7173L13.8431 10.6626L13.8671 10.6022ZM13.5071 6.89267C13.6533 7.76829 13.5818 8.68374 13.3034 9.49988L8.12058 5.08511C8.49553 4.4987 8.98535 4.06384 9.53498 3.82941C10.0846 3.59498 10.6723 3.57027 11.2319 3.75806C11.7915 3.94586 12.3009 4.33871 12.7029 4.89245C13.1048 5.4462 13.3833 6.13889 13.5071 6.89267ZM5.62311 19.381L4.67657 18.5748L7.21173 10.874C7.81772 12.0187 8.73503 12.8001 9.76673 13.0504L5.62311 19.381ZM7.44069 8.69267C7.29451 7.81705 7.36605 6.90159 7.64443 6.08545L8.12058 5.08511L13.3034 9.49988C12.9284 10.0863 11.9625 11.5215 11.4128 11.7559C10.8632 11.9904 10.2755 12.0151 9.71591 11.8273C9.15628 11.6395 8.64687 11.2466 8.24494 10.6929C7.84301 10.1391 7.56449 9.44645 7.44069 8.69267Z" fill="#C4C4C4"/>
</svg>
