<svg width="22" height="24" viewBox="0 0 22 24" fill="none" xmlns="http://www.w3.org/2000/svg">
<path d="M15.2308 15.4905C14.8226 15.3442 14.3014 14.9632 13.7182 14.3002C13.2175 13.7437 12.701 13.0267 12.1726 12.2452C12.0458 12.4365 11.9196 12.6277 11.7928 12.8227C11.4474 13.3537 11.094 13.89 10.734 14.4172C11.9916 16.1497 13.2968 17.8507 15.2321 18.1312V20.1562L20.2223 16.8862L15.2314 13.614V15.4905H15.2308ZM6.9123 8.95047C7.41165 9.50547 7.92817 10.2225 8.4579 11.004C8.58604 10.8075 8.7155 10.614 8.84496 10.413C9.19004 9.88084 9.54057 9.35331 9.89649 8.83047C8.55434 6.98247 7.1666 5.15022 5.01135 5.06247H2.69956V7.68747H5.01135C5.44399 7.66722 6.12233 8.05122 6.9123 8.94972V8.95047ZM15.2308 7.75572V9.65772L20.2216 6.38547L15.2308 3.11322V5.09847C13.9732 5.26347 12.9685 6.10947 12.0934 7.08147C10.6422 8.71947 9.37403 10.9575 8.12236 12.7365C6.88919 14.5642 5.65205 15.6517 5.01003 15.564H2.69824V18.189H5.01003C6.45325 18.1665 7.57282 17.2395 8.53716 16.1692C9.98632 14.5312 11.2558 12.294 12.5068 10.5157C13.526 9.00297 14.5439 8.01072 15.2308 7.75572V7.75572Z" fill="#C4C4C4"/>
</svg>
