<svg width="14" height="14" viewBox="0 0 14 14" fill="none" xmlns="http://www.w3.org/2000/svg">
<path d="M12.7968 1.54728C12.0805 0.824528 11.1187 0.397366 10.1022 0.350504C9.08565 0.303641 8.08864 0.640501 7.30884 1.29428C7.21914 1.36198 7.11109 1.40102 6.99884 1.40628C6.88589 1.40299 6.77695 1.36375 6.68784 1.29428C5.90839 0.640129 4.91145 0.303018 3.89496 0.349887C2.87847 0.396756 1.91678 0.824178 1.20084 1.54728C0.430836 2.31728 0.00683594 3.34128 0.00683594 4.43028C0.00683594 5.51928 0.430836 6.54328 1.17484 7.28528L5.63684 12.5083C5.80497 12.7055 6.01392 12.8639 6.24924 12.9726C6.48456 13.0812 6.74065 13.1374 6.99984 13.1374C7.25902 13.1374 7.51511 13.0812 7.75043 12.9726C7.98576 12.8639 8.1947 12.7055 8.36284 12.5083L12.7978 7.31328C13.1777 6.93558 13.4789 6.48631 13.684 5.99145C13.8891 5.49659 13.9941 4.96597 13.9928 4.43028C13.9937 3.89457 13.8885 3.36399 13.6832 2.86916C13.4779 2.37434 13.1767 1.92507 12.7968 1.54728V1.54728Z" fill="#C4C4C4"/>
</svg>
